<svg xmlns="http://www.w3.org/2000/svg" viewBox="0 0 256 256">
  <g transform="translate(0,256) scale(0.1,-0.1)" fill="#FC0097" stroke="none">
    <path d="M855 2460c-11-5-37-9-57-9-20-1-40-5-43-11-3-5-19-10-36-10-16 0-29-4-29-10 0-5-9-10-20-10-11 0-28-4-38-9-9-5-44-22-76-37-32-15-67-35-77-45-11-11-24-19-30-19-5 0-7-4-4-10 3-5 0-10-8-10-17 0-103-87-99-101 1-5-3-8-9-7-14 3-110-133-103-144 3-4 0-8-5-8-6 0-11-6-11-14 0-7-8-24-19-37-18-24-61-145-61-174 0-8-4-15-8-15-14 0-27-162-24-294l3-126 167 2 167 3 6 160c10 230 11 235 70 334 22 34 39 65 39 67 0 11 131 124 145 124 4 0 30 11 57 25 96 48 110 49 523 49 373-1 459-5 471-25 3-5 13-9 22-9 35 0 138-63 196-118 43-42 69-79 99-142 61-128 65-150 66-348l1-122 168 2 167 3-1 170c0 94-4 186-7 205-12 65-30 120-38 120-5 0-9 9-9 20 0 11-7 37-17 58-9 20-17 39-18 42-30 87-148 225-266 311-50 36-128 79-146 80-5 0-13 5-19 10-6 5-45 21-85 35-148 52-176 54-594 53-214 0-399-4-410-9z"/>
    <path d="M1614 1941c-2-3-4-221-4-485 1-474 1-481-20-498-29-24-98-17-122 12-16 20-18 43-18 195 0 95-3 180-6 189-5 14-29 16-165 16-120 0-159-3-159-12-1-7 0-87 0-178 1-158 0-168-22-200-20-29-31-36-64-38-29-2-48 3-65 17l-24 19-5 479-5 478-37-2c-21-1-52-10-70-19-48-25-146-113-154-138-3-11-14-30-24-41-35-38-40-93-40-458l-1-358 26-54c14-30 25-58 25-64 0-5 23-34 50-65 52-56 128-106 161-106 10 0 21-4 24-10 4-6 56-10 124-10 98 0 128 4 172 22 30 12 58 25 63 30 17 14 50 9 76-12 14-11 35-20 47-20 12 0 25-4 28-10 8-12 252-14 259-1 3 4 27 14 53 21 35 10 62 29 109 76 53 54 109 142 118 186 2 7 6 20 10 29 4 9 6 174 4 365-3 309-5 353-20 383-10 19-18 38-18 42 0 16-61 98-99 132-62 56-113 84-159 89-24 2-45 2-48-1z"/>
    <path d="M100 1041c0-88 4-162 9-165 5-3 7-21 4-40-2-19 1-45 8-58 7-13 12-27 11-31-3-9 31-95 60-152 38-75 69-129 76-135 4-3 20-22 35-43 33-43 109-120 152-152 49-37 157-92 226-115 35-11 71-24 79-27 8-4 29-9 45-11 68-8 814-16 855-9 25 5 59 9 77 10 17 1 35 5 39 9 4 5 20 8 35 8 15 0 30 4 33 9 3 4 27 14 53 22 26 7 74 30 108 51 33 21 69 42 81 47 11 5 38 25 59 45 21 20 41 36 44 36 10 0 77 75 84 94 4 9 10 16 15 16 5 0 26 25 46 55 20 30 34 55 31 55-3 0 3 9 12 20 9 10 18 25 19 32 2 7 8 31 14 53 7 22 14 52 17 68 3 15 9 27 13 27 13 0 21 84 26 268l5 172-159 0c-116 0-162-3-170-12-6-7-12-78-15-158-5-170-10-194-47-271-15-32-25-60-22-63 3-4 1-6-4-6-5 0-31-29-59-65-27-35-54-65-59-65-4 0-30-16-56-35-50-37-110-62-170-72-19-4-212-8-429-10-289-3-397 0-407 8-8 7-17 9-20 6-3-3-23 1-45 8-21 8-39 11-39 7 0-4-4-2-8 3-4 6-29 21-56 35-64 32-164 132-196 196-14 27-29 52-33 55-5 3-8 9-7 13 2 14-12 82-21 98-5 10-9 85-9 167 0 146 0 149-22 155-13 3-89 6-170 6l-148 0 0-159z"/>
  </g>
</svg>